<svg viewBox="0 0 24 24" xmlns="http://www.w3.org/2000/svg">
  <path
    d="M21 1a3 3 0 0 1 3 3v14a2.998 2.998 0 0 1-2 2.825v.675a1.5 1.5 0 0 1-3 0V21H5v.5a1.5 1.5 0 0 1-3 0v-.675A2.998 2.998 0 0 1 0 18V4a3 3 0 0 1 3-3h18Zm-8 18h8a1 1 0 0 0 1-1V4a1 1 0 0 0-1-1h-8v16ZM3 3a1 1 0 0 0-1 1v14a1 1 0 0 0 1 1h8V3H3Zm1.5 8a1.5 1.5 0 1 1 0 3 1.5 1.5 0 0 1 0-3Zm11 0a1.5 1.5 0 1 1 0 3 1.5 1.5 0 0 1 0-3ZM9 7a1 1 0 0 1 0 2H4a1 1 0 0 1 0-2h5Zm11 0a1 1 0 1 1 0 2h-5a1 1 0 1 1 0-2h5ZM9 4a1 1 0 0 1 0 2H4a1 1 0 0 1 0-2h5Zm11 0a1 1 0 1 1 0 2h-5a1 1 0 1 1 0-2h5Z"
  />
</svg>
